<?xml version="1.0" encoding="UTF-8"?>
<!-- Created with Inkscape (http://www.inkscape.org/) -->
<svg width="100%" height="100%" version="1.1" viewBox="0 0 945.77005 259.98635" xmlns="http://www.w3.org/2000/svg" xmlns:cc="http://creativecommons.org/ns#" xmlns:dc="http://purl.org/dc/elements/1.1/" xmlns:rdf="http://www.w3.org/1999/02/22-rdf-syntax-ns#">
 <metadata>
  <rdf:RDF>
   <cc:Work rdf:about="">
    <dc:format>image/svg+xml</dc:format>
    <dc:type rdf:resource="http://purl.org/dc/dcmitype/StillImage"/>
    <dc:title/>
   </cc:Work>
  </rdf:RDF>
 </metadata>
 <g transform="matrix(4.2185 0 0 4.2185 -903.96 -1263.7)">
  <g transform="translate(191.14 156.75)">
   <g transform="matrix(2.5666,0,0,2.5666,-110.52,4.3335)">
    <g fill="#2c2255">
     <path d="m84.09 61.775h-5.3495c0.03859 0.7276 0.28112 1.3064 0.7276 1.7363 0.452 0.42995 1.0335 0.64492 1.7446 0.64492 0.99219 0 1.9072-0.30868 2.7451-0.92604v1.4717c-0.46302 0.30868-0.92329 0.52917-1.3808 0.66146-0.452 0.13229-0.98392 0.19844-1.5958 0.19844-0.83785 0-1.5158-0.17363-2.034-0.5209-0.51814-0.34726-0.93431-0.81304-1.2485-1.3973-0.30868-0.5898-0.46302-1.2706-0.46302-2.0423 0-1.1576 0.32797-2.0974 0.98392-2.8195 0.65595-0.7276 1.5076-1.0914 2.5549-1.0914 1.0087 0 1.8135 0.35278 2.4143 1.0583s0.90124 1.6509 0.90124 2.836zm-5.3165-0.90124h3.8282c-0.03859-0.60082-0.21773-1.0638-0.53744-1.3891-0.3197-0.32522-0.74965-0.48782-1.2898-0.48782s-0.98392 0.16261-1.3312 0.48782c-0.34175 0.32522-0.565 0.78824-0.66973 1.3891z" style="font-feature-settings:normal;font-variant-caps:normal;font-variant-ligatures:normal;font-variant-numeric:normal"/>
     <path d="m90.887 63.669v1.4883c-0.75516 0.28112-1.4938 0.42168-2.2159 0.42168-1.1906 0-2.1415-0.35278-2.8525-1.0583-0.70556-0.70556-1.0583-1.6509-1.0583-2.836 0-1.1961 0.34451-2.1608 1.0335-2.8939 0.68902-0.73312 1.5958-1.0997 2.7202-1.0997 0.39136 0 0.74138 0.03858 1.0501 0.11576 0.31419 0.07166 0.70004 0.20946 1.1576 0.41341v1.604c-0.76068-0.48507-1.4662-0.7276-2.1167-0.7276-0.678 0-1.2347 0.23978-1.6702 0.71934-0.43546 0.47404-0.65319 1.0804-0.65319 1.819 0 0.77721 0.23427 1.3946 0.7028 1.8521 0.47404 0.45751 1.1107 0.68626 1.91 0.68626 0.57878 0 1.243-0.16812 1.9926-0.50436z" style="font-feature-settings:normal;font-variant-caps:normal;font-variant-ligatures:normal;font-variant-numeric:normal"/>
     <path d="m91.905 54.726h1.5048v10.721h-1.5048z" style="font-feature-settings:normal;font-variant-caps:normal;font-variant-ligatures:normal;font-variant-numeric:normal"/>
    </g>
    <path d="m95.283 54.64c0.24805 0 0.46026 0.08544 0.63665 0.25632s0.26458 0.38034 0.26458 0.62839c0 0.24254-0.08819 0.452-0.26458 0.62838-0.17639 0.17639-0.38861 0.26458-0.63665 0.26458-0.23151 0-0.43546-0.08819-0.61185-0.26458-0.17639-0.1819-0.26458-0.39136-0.26458-0.62838 0-0.23151 0.08819-0.43546 0.26458-0.61185 0.17639-0.1819 0.38034-0.27285 0.61185-0.27285z" fill="#f7941e" style="font-feature-settings:normal;font-variant-caps:normal;font-variant-ligatures:normal;font-variant-numeric:normal"/>
    <g fill="#2c2255">
     <path d="m94.539 57.84h1.5048v7.6068h-1.5048z" style="font-feature-settings:normal;font-variant-caps:normal;font-variant-ligatures:normal;font-variant-numeric:normal"/>
     <path d="m96.989 69.324v-11.485h2.6376c1.3505 0 2.4005 0.33624 3.1502 1.0087 0.75516 0.67248 1.1327 1.6123 1.1327 2.8195 0 1.141-0.35553 2.0781-1.0666 2.8112-0.70555 0.73312-1.6068 1.0997-2.7037 1.0997-0.48507 0-1.0225-0.10749-1.6123-0.32246v4.068zm2.6045-10.079h-1.0666v4.6798c0.46302 0.23702 0.94809 0.35553 1.4552 0.35553 0.70556 0 1.2816-0.24529 1.7281-0.73587 0.452-0.49058 0.678-1.1217 0.678-1.8934 0-0.49609-0.10749-0.93431-0.32246-1.3146-0.20946-0.38034-0.49885-0.65595-0.86817-0.82682-0.3638-0.17639-0.89848-0.26458-1.604-0.26458z" style="font-feature-settings:normal;font-variant-caps:normal;font-variant-ligatures:normal;font-variant-numeric:normal"/>
     <path d="m104.41 64.901v-1.6206c0.42444 0.29766 0.85714 0.54019 1.2981 0.7276 0.44649 0.1819 0.82131 0.27285 1.1245 0.27285 0.31419 0 0.58429-0.07717 0.81029-0.23151s0.339-0.339 0.339-0.55397c0-0.22049-0.0744-0.40239-0.22325-0.5457-0.14331-0.14883-0.4575-0.36105-0.94257-0.63665-0.97014-0.54019-1.6068-1.0005-1.91-1.3808-0.29766-0.38585-0.44649-0.80477-0.44649-1.2568 0-0.58429 0.226-1.0611 0.678-1.4304 0.45751-0.36931 1.0446-0.55397 1.7611-0.55397 0.74414 0 1.5076 0.20946 2.2903 0.62838v1.4883c-0.89297-0.54019-1.6233-0.81029-2.1911-0.81029-0.29215 0-0.52917 0.06339-0.71107 0.19017-0.17639 0.12127-0.26458 0.28388-0.26458 0.48783 0 0.17639 0.0799 0.34451 0.23977 0.50436 0.16537 0.15985 0.452 0.35278 0.8599 0.57878l0.53744 0.30592c1.2678 0.71658 1.9017 1.5103 1.9017 2.3812 0 0.62287-0.24529 1.1355-0.73587 1.5379-0.48507 0.39688-1.1107 0.59531-1.8769 0.59531-0.452 0-0.85439-0.04685-1.2072-0.14056-0.35278-0.09922-0.79651-0.27836-1.3312-0.53744z" style="font-feature-settings:normal;font-variant-caps:normal;font-variant-ligatures:normal;font-variant-numeric:normal"/>
     <path d="m116.89 61.775h-5.3495c0.0386 0.7276 0.28113 1.3064 0.7276 1.7363 0.45199 0.42995 1.0335 0.64492 1.7446 0.64492 0.99219 0 1.9072-0.30868 2.745-0.92604v1.4717c-0.46302 0.30868-0.92329 0.52917-1.3808 0.66146-0.45199 0.13229-0.98391 0.19844-1.5958 0.19844-0.83785 0-1.5158-0.17363-2.034-0.5209-0.51814-0.34726-0.93431-0.81304-1.2485-1.3973-0.30868-0.5898-0.46302-1.2706-0.46302-2.0423 0-1.1576 0.32797-2.0974 0.98392-2.8195 0.65595-0.7276 1.5076-1.0914 2.5549-1.0914 1.0087 0 1.8135 0.35278 2.4143 1.0583 0.60083 0.70556 0.90124 1.6509 0.90124 2.836zm-5.3165-0.90124h3.8282c-0.0386-0.60082-0.21775-1.0638-0.53744-1.3891-0.3197-0.32522-0.74965-0.48782-1.2898-0.48782s-0.98392 0.16261-1.3312 0.48782c-0.34175 0.32522-0.565 0.78824-0.66973 1.3891z" style="font-feature-settings:normal;font-variant-caps:normal;font-variant-ligatures:normal;font-variant-numeric:normal"/>
     <path d="m83.323 75.367v1.4883q-1.1327 0.42168-2.2159 0.42168-1.7859 0-2.8525-1.0583-1.0583-1.0583-1.0583-2.836 0-1.7942 1.0335-2.8939t2.7202-1.0997q0.58704 0 1.0501 0.11576 0.47129 0.10749 1.1576 0.41341v1.604q-1.141-0.7276-2.1167-0.7276-1.017 0-1.6702 0.71934-0.65319 0.71107-0.65319 1.819 0 1.1658 0.7028 1.8521 0.71107 0.68626 1.91 0.68626 0.86816 0 1.9926-0.50436z" style="font-feature-settings:normal;font-variant-caps:normal;font-variant-ligatures:normal;font-variant-numeric:normal"/>
     <path d="m87.349 69.521q1.7363 0 2.8856 1.1245 1.1493 1.1162 1.1493 2.8112 0 1.6454-1.1658 2.7368-1.1658 1.0831-2.9352 1.0831-1.7115 0-2.8608-1.0997-1.1493-1.1079-1.1493-2.7616 0-1.6702 1.1576-2.7781 1.1658-1.1162 2.9187-1.1162zm-0.08268 1.356q-1.0831 0-1.7777 0.71107-0.69453 0.71107-0.69453 1.8107 0 1.0914 0.71107 1.7859 0.71107 0.68626 1.8273 0.68626 1.1079 0 1.8107-0.69453 0.71107-0.7028 0.71107-1.7942 0-1.0831-0.73587-1.7942-0.73587-0.71107-1.8521-0.71107z" style="font-feature-settings:normal;font-variant-caps:normal;font-variant-ligatures:normal;font-variant-numeric:normal"/>
     <path d="m91.905 66.423h1.5048v10.721h-1.5048z" style="font-feature-settings:normal;font-variant-caps:normal;font-variant-ligatures:normal;font-variant-numeric:normal"/>
     <path d="m94.543 66.423h1.5048v10.721h-1.5048z" style="font-feature-settings:normal;font-variant-caps:normal;font-variant-ligatures:normal;font-variant-numeric:normal"/>
     <path d="m103.51 73.473h-5.3495q0.05788 1.0914 0.7276 1.7363 0.678 0.64492 1.7446 0.64492 1.4883 0 2.745-0.92604v1.4717q-0.69453 0.46302-1.3808 0.66146-0.678 0.19844-1.5958 0.19844-1.2568 0-2.034-0.5209-0.77721-0.5209-1.2485-1.3973-0.46302-0.8847-0.46302-2.0423 0-1.7363 0.98392-2.8195 0.98392-1.0914 2.5549-1.0914 1.5131 0 2.4143 1.0583 0.90123 1.0583 0.90123 2.836zm-5.3165-0.90124h3.8282q-0.0579-0.90124-0.53743-1.3891-0.47956-0.48782-1.2898-0.48782-0.81028 0-1.3312 0.48782-0.51263 0.48783-0.66973 1.3891z" style="font-feature-settings:normal;font-variant-caps:normal;font-variant-ligatures:normal;font-variant-numeric:normal"/>
     <path d="m110.2 75.367v1.4883q-1.1328 0.42168-2.2159 0.42168-1.7859 0-2.8525-1.0583-1.0583-1.0583-1.0583-2.836 0-1.7942 1.0335-2.8939t2.7202-1.0997q0.58705 0 1.0501 0.11576 0.47129 0.10749 1.1576 0.41341v1.604q-1.141-0.7276-2.1167-0.7276-1.017 0-1.6702 0.71934-0.65319 0.71107-0.65319 1.819 0 1.1658 0.7028 1.8521 0.71107 0.68626 1.91 0.68626 0.86817 0 1.9926-0.50436z" style="font-feature-settings:normal;font-variant-caps:normal;font-variant-ligatures:normal;font-variant-numeric:normal"/>
     <path d="m110.53 70.745 2.8277-2.7781v1.571h2.406v1.356h-2.406v3.729q0 1.3064 1.0831 1.3064 0.81028 0 1.7115-0.5457v1.4056q-0.86817 0.48783-1.8934 0.48783-1.0335 0-1.7198-0.60358-0.21497-0.1819-0.35553-0.40514-0.14056-0.23151-0.23978-0.59531-0.0909-0.37207-0.0909-1.4056v-3.3734h-1.3229z" style="font-feature-settings:normal;font-variant-caps:normal;font-variant-ligatures:normal;font-variant-numeric:normal"/>
     <path d="m117.34 66.338q0.37207 0 0.63665 0.25632 0.26459 0.25632 0.26459 0.62839 0 0.3638-0.26459 0.62838-0.26458 0.26458-0.63665 0.26458-0.34727 0-0.61185-0.26458-0.26458-0.27285-0.26458-0.62838 0-0.34727 0.26458-0.61185 0.26458-0.27285 0.61185-0.27285zm-0.74414 3.1998h1.5048v7.6068h-1.5048z" style="font-feature-settings:normal;font-variant-caps:normal;font-variant-ligatures:normal;font-variant-numeric:normal"/>
     <path d="m122.71 69.521q1.7363 0 2.8856 1.1245 1.1493 1.1162 1.1493 2.8112 0 1.6454-1.1658 2.7368-1.1658 1.0831-2.9352 1.0831-1.7115 0-2.8608-1.0997-1.1493-1.1079-1.1493-2.7616 0-1.6702 1.1576-2.7781 1.1658-1.1162 2.9187-1.1162zm-0.0827 1.356q-1.0831 0-1.7777 0.71107-0.69453 0.71107-0.69453 1.8107 0 1.0914 0.71106 1.7859 0.71107 0.68626 1.8273 0.68626 1.108 0 1.8107-0.69453 0.71107-0.7028 0.71107-1.7942 0-1.0831-0.73587-1.7942-0.73587-0.71107-1.8521-0.71107z" style="font-feature-settings:normal;font-variant-caps:normal;font-variant-ligatures:normal;font-variant-numeric:normal"/>
     <path d="m128.75 69.538v0.96738q1.0087-1.1162 2.2903-1.1162 0.71106 0 1.3229 0.37207 0.61185 0.3638 0.92604 1.0087 0.32246 0.63665 0.32246 2.0257v4.3491h-1.5048v-4.3326q0-1.1658-0.35554-1.6619-0.35553-0.50436-1.1906-0.50436-1.0666 0-1.8107 1.0666v5.4322h-1.5379v-7.6068z" style="font-feature-settings:normal;font-variant-caps:normal;font-variant-ligatures:normal;font-variant-numeric:normal"/>
     <path d="m134.28 76.599v-1.6206q0.63665 0.44648 1.2981 0.7276 0.66973 0.27285 1.1245 0.27285 0.47129 0 0.81029-0.23151t0.339-0.55397q0-0.33073-0.22325-0.5457-0.21497-0.22324-0.94257-0.63665-1.4552-0.81029-1.91-1.3808-0.44648-0.57878-0.44648-1.2568 0-0.87643 0.678-1.4304 0.68626-0.55397 1.7611-0.55397 1.1162 0 2.2903 0.62838v1.4883q-1.3395-0.81029-2.1911-0.81029-0.43822 0-0.71107 0.19017-0.26458 0.1819-0.26458 0.48783 0 0.26458 0.23977 0.50436 0.24805 0.23978 0.8599 0.57878l0.53743 0.30592q1.9017 1.0749 1.9017 2.3812 0 0.93431-0.73587 1.5379-0.72761 0.59531-1.8769 0.59531-0.678 0-1.2072-0.14056-0.52917-0.14883-1.3312-0.53744z" style="font-feature-settings:normal;font-variant-caps:normal;font-variant-ligatures:normal;font-variant-numeric:normal"/>
    </g>
   </g>
   <path d="m34.105 197.16 6.596-7.8159a20.589 20.586 0 0 0 7.6571 4.0666l-2.7944 9.8425a30.821 30.817 0 0 1 -11.459 -6.0931zm-2.2507-2.0711a30.821 30.817 0 0 1 -6.877 -11.006l9.6269-3.4735a20.589 20.586 0 0 0 4.5896 7.3549zm16.678 8.8682 1.8087-10.09a20.589 20.586 0 0 0 8.6579 -0.29326l2.5048 9.9317a30.821 30.817 0 0 1 -12.971 0.45203zm-24.449-22.799a30.821 30.817 0 0 1 -0.45212 -12.97l10.086 1.8068a20.589 20.586 0 0 0 0.28939 8.6614zm40.347 21.453-3.478-9.636a20.589 20.586 0 0 0 7.3495 -4.5885l7.1356 7.3484a30.821 30.817 0 0 1 -11.007 6.8761zm-40.12-37.401a30.821 30.817 0 0 1 5.6326 -10.897l-3-2.949 13.157 0.24409 0.47134 13.15-3.2451-3.1894a20.589 20.586 0 0 0 -3.1498 6.442zm45.366 21.677a20.589 20.586 0 0 0 4.0664 -7.6449l9.8662 2.8003a30.821 30.817 0 0 1 -0.39949 1.2251l0.39361 0.17068a1.1533 0.99725 40.395 0 1 -0.16506 0.29629l-0.30438-0.25923a30.821 30.817 0 0 1 -5.619 10.025zm-27.398-30.157-0.25268-7.0806-7.1381-0.13244a30.821 30.817 0 0 1 8.6211 -4.8798l3.4767 9.634a20.589 20.586 0 0 0 -4.7071 2.4588zm31.924 20.524a20.589 20.586 0 0 0 -0.29014 -8.657l9.9336-2.504a30.821 30.817 0 0 1 0.45153 12.969zm-25.273-23.576-2.5043-9.9323a30.821 30.817 0 0 1 12.971 -0.45206l-1.809 10.094a20.589 20.586 0 0 0 -8.6581 0.2901zm24.386 12.966a20.589 20.586 0 0 0 -4.5867 -7.3514l7.346-7.1307a30.821 30.817 0 0 1 6.877 11.006zm-13.739-12.797 2.8011-9.8656a30.821 30.817 0 0 1 11.459 6.0937l-6.6141 7.8371a20.589 20.586 0 0 0 -7.6463 -4.0653z" fill="#f7941e"/>
  </g>
 </g>
</svg>
